<svg width="135" height="27" viewBox="0 0 135 27" fill="none" xmlns="http://www.w3.org/2000/svg">
<path fill-rule="evenodd" clip-rule="evenodd" d="M17.6857 7.02457L14.2071 0H10.3948L5.55619 9.77422H8.94666L11.6697 4.27492C11.7293 4.1561 11.8196 4.05645 11.9307 3.98688C12.0417 3.91732 12.1693 3.8805 12.2993 3.8805C12.4294 3.8805 12.557 3.91732 12.668 3.98688C12.7791 4.05645 12.8694 4.1561 12.929 4.27492L15.6536 9.77422H19.0472L17.6857 7.02457ZM12.1295 18.2593L8.65246 11.2348H4.84015L0 21.0089H3.39046L6.11512 15.5096C6.17471 15.3908 6.26498 15.2912 6.37604 15.2216C6.48711 15.152 6.61467 15.1153 6.74473 15.1153C6.87481 15.1153 7.00237 15.152 7.11343 15.2216C7.22449 15.2912 7.31476 15.3908 7.37434 15.5096L10.0974 21.0089H11.1174H13.491H14.5079L17.231 15.5096C17.2909 15.3913 17.3813 15.2921 17.4924 15.2229C17.6034 15.1537 17.7307 15.1172 17.8606 15.1172C17.9904 15.1172 18.1178 15.1537 18.2288 15.2229C18.3399 15.2921 18.4302 15.3913 18.4902 15.5096L21.2133 21.0089H24.6085L23.2469 18.2593L19.7699 11.2348H15.956L12.3041 18.6119L12.1295 18.2593ZM90.5651 13.4458C90.5651 8.82318 93.5164 5.79211 97.7505 5.79211C101.898 5.79211 104.703 8.79406 104.703 13.3019V14.4729H93.6329C93.721 17.0834 95.5012 18.7349 97.9268 18.7349C100.204 18.7349 101.198 17.8016 101.812 16.1469H104.604C104.604 18.303 102.433 21.4295 97.8686 21.4295C93.4865 21.4295 90.5651 18.3984 90.5651 13.8065V13.4458ZM97.719 8.52882C95.4398 8.52882 93.9508 9.87938 93.658 12.1001H101.662C101.486 9.87938 99.9683 8.52882 97.719 8.52882ZM109.033 0H106.024V21.0106H109.033V0ZM131.99 0H135V21.0106H131.99V0ZM112.66 0C111.462 0 110.587 0.839453 110.587 2.10267C110.587 3.3659 111.462 4.20535 112.66 4.20535C113.828 4.20535 114.735 3.36428 114.735 2.10267C114.735 0.841071 113.828 0 112.66 0ZM111.141 6.21259H114.149V21.0089H111.141V6.21259ZM70.6599 13.716C70.6599 16.8974 69.0543 18.6378 66.5674 18.6378C64.348 18.6378 63.0337 17.4684 63.0337 14.887V6.21265H60.0225V15.1264C60.0225 18.9387 62.3836 21.2726 65.689 21.2726C67.5275 21.2726 68.6954 20.7081 69.4258 19.9787C69.564 19.8494 69.7442 19.778 69.9311 19.7781C70.1307 19.7781 70.3221 19.8596 70.4631 20.0046C70.6041 20.1496 70.6835 20.3462 70.6835 20.5513V23.398C70.6835 23.998 70.4206 24.2989 69.865 24.2989H61.8374V27H70.7747C72.5566 27 73.6663 25.8678 73.6663 24.0288V6.19971H70.6599V13.716ZM48.0197 17.1649C48.1543 17.0524 48.2469 16.8956 48.282 16.7211L52.2438 0H58.1716V21.009H55.1038V6.78681C55.1038 6.58047 55.024 6.38257 54.882 6.23668C54.7401 6.09077 54.5476 6.0088 54.3467 6.0088C54.1799 6.00917 54.0179 6.06612 53.8858 6.17083C53.7538 6.27553 53.659 6.42215 53.6164 6.58786L50.1976 21.009H44.8868L41.468 6.58946C41.4255 6.42319 41.3307 6.27603 41.1983 6.17098C41.066 6.06593 40.9034 6.0089 40.736 6.0088C40.5352 6.0088 40.3427 6.09077 40.2007 6.23668C40.0587 6.38257 39.9789 6.58047 39.9789 6.78681V21.009H36.9127V0H42.8421L46.8134 16.747C46.8527 16.9157 46.9461 17.0658 47.0786 17.1732C47.2111 17.2806 47.375 17.339 47.5437 17.339C47.7172 17.339 47.8853 17.2775 48.0197 17.1649ZM82.492 8.55468C85.0325 8.55468 86.2886 10.0541 86.6396 12.126H89.561C89.561 9.3246 87.2787 5.79211 82.4338 5.79211C78.2563 5.79211 75.0437 8.61454 75.0437 13.4167V13.8065C75.0437 18.6087 78.2563 21.4295 82.4338 21.4295C87.2787 21.4295 89.561 17.8986 89.561 15.0973H86.6396C86.2886 17.1676 85.0325 18.6685 82.492 18.6685C79.9736 18.6685 78.0517 16.8683 78.0517 13.7467V13.4733C78.058 10.3549 79.9799 8.55468 82.492 8.55468ZM128.735 17.5282C128.735 18.1283 129.028 18.4275 129.554 18.4275L130.788 18.4195V21.0074H128.526C127.582 21.0074 126.831 20.6062 126.48 19.9318V19.9528C126.416 19.8279 126.32 19.7234 126.203 19.6505C126.086 19.5775 125.951 19.5389 125.814 19.5387C125.703 19.5387 125.593 19.564 125.493 19.6126C125.392 19.6613 125.304 19.7322 125.233 19.8202C124.596 20.6289 123.453 21.4376 121.317 21.4376C118.251 21.4376 115.913 19.7474 115.913 16.747C115.913 13.7467 118.257 12.1859 121.405 12.1859H125.789V11.2251C125.789 9.50574 124.796 8.37353 122.693 8.37353C120.823 8.37353 119.811 9.2777 119.371 10.6218H116.301C116.446 10.0378 116.657 9.47329 116.93 8.93963C117.871 7.15398 119.691 5.79211 122.719 5.79211C126.458 5.79211 128.735 7.83332 128.735 11.4354V17.5282ZM121.756 18.8788C124.15 18.8788 125.786 17.3778 125.786 14.887V14.5861H121.58C119.974 14.5861 118.923 15.3075 118.923 16.6581C118.923 18.0086 119.974 18.8788 121.756 18.8788Z" fill="#3A554C"/>
</svg>
