<svg width="859" height="168" viewBox="0 0 859 168" fill="none" xmlns="http://www.w3.org/2000/svg">
<g clip-path="url(#clip0_26_10877)">
<path d="M77.7253 113.135L55.6353 69.7051L77.7253 113.135Z" fill="#97B398"/>
<path d="M77.725 113.135L55.635 69.7051H31.415L0.665039 130.135H22.205L39.515 96.135C39.8936 95.4005 40.4671 94.7844 41.1727 94.3542C41.8783 93.9241 42.6887 93.6967 43.515 93.6967C44.3414 93.6967 45.1518 93.9241 45.8574 94.3542C46.563 94.7844 47.1365 95.4005 47.515 96.135L64.815 130.135H86.375L77.725 113.135Z" fill="#97B398"/>
<path d="M113.015 43.6751L90.9248 0.245117L113.015 43.6751Z" fill="#97B398"/>
<path d="M113.025 43.6752L90.9248 0.245117H66.7048L35.9648 60.6752H57.5048L74.8048 26.6752C75.1834 25.9406 75.7569 25.3245 76.4625 24.8944C77.1681 24.4643 77.9785 24.2367 78.8048 24.2367C79.6312 24.2367 80.4416 24.4643 81.1472 24.8944C81.8528 25.3245 82.4263 25.9406 82.8048 26.6752L100.115 60.6752H121.675L113.025 43.6752Z" fill="#97B398"/>
<path d="M148.355 113.135L126.255 69.7051L148.355 113.135Z" fill="#97B398"/>
<path d="M148.355 113.135L126.265 69.7051H102.035L71.2949 130.135H92.8349L110.135 96.135C110.516 95.4034 111.09 94.7903 111.796 94.3624C112.501 93.9346 113.31 93.7084 114.135 93.7084C114.96 93.7084 115.769 93.9346 116.474 94.3624C117.179 94.7903 117.754 95.4034 118.135 96.135L135.435 130.135H157.005L148.355 113.135Z" fill="#97B398"/>
<path d="M621.685 36.0552C594.785 36.0552 576.035 54.7951 576.035 83.3751V85.6052C576.035 113.995 594.595 132.735 622.435 132.735C651.435 132.735 665.225 113.405 665.225 100.075H647.485C643.585 110.305 637.275 116.075 622.805 116.075C607.395 116.075 596.085 105.865 595.525 89.7252H665.855V82.4851C665.855 54.6151 648.035 36.0552 621.685 36.0552ZM595.685 75.0552C597.545 61.3252 607.005 52.9752 621.485 52.9752C635.775 52.9752 645.415 61.3252 646.535 75.0552H595.685Z" fill="#97B398"/>
<path d="M693.365 0.245117H674.245V130.145H693.365V0.245117Z" fill="#97B398"/>
<path d="M858.335 0.245117H839.215V130.145H858.335V0.245117Z" fill="#97B398"/>
<path d="M716.405 0.245117C708.795 0.245117 703.235 5.43512 703.235 13.2451C703.235 21.0551 708.795 26.2451 716.405 26.2451C723.825 26.2451 729.585 21.0451 729.585 13.2451C729.585 5.44512 723.825 0.245117 716.405 0.245117Z" fill="#97B398"/>
<path d="M725.865 38.6553H706.755V130.135H725.865V38.6553Z" fill="#97B398"/>
<path d="M449.575 85.0452C449.575 104.715 439.375 115.475 423.575 115.475C409.475 115.475 401.125 108.245 401.125 92.2852V38.6552H381.995V93.7651C381.995 117.335 396.995 131.765 417.995 131.765C429.675 131.765 437.095 128.275 441.735 123.765C442.613 122.966 443.758 122.524 444.945 122.525C446.213 122.525 447.429 123.029 448.325 123.925C449.221 124.822 449.725 126.037 449.725 127.305V144.905C449.725 148.615 448.055 150.475 444.525 150.475H393.525V167.175H450.305C461.625 167.175 468.675 160.175 468.675 148.805V38.5752H449.575V85.0452Z" fill="#97B398"/>
<path d="M307.405 103.625C307.182 104.704 306.593 105.673 305.739 106.369C304.885 107.065 303.817 107.445 302.715 107.445C301.643 107.445 300.602 107.084 299.76 106.42C298.918 105.756 298.324 104.828 298.075 103.785L272.845 0.245117H235.175V130.135H254.655V42.2052C254.655 40.9295 255.162 39.706 256.064 38.804C256.966 37.9019 258.189 37.3951 259.465 37.3951C260.528 37.3957 261.56 37.7483 262.402 38.3978C263.243 39.0473 263.845 39.9571 264.115 40.9851L285.835 130.135H319.575L341.295 40.9752C341.566 39.9507 342.168 39.0442 343.007 38.3969C343.846 37.7495 344.875 37.3974 345.935 37.3951C347.21 37.3951 348.434 37.9019 349.336 38.804C350.238 39.706 350.745 40.9295 350.745 42.2052V130.135H370.235V0.245117H332.575L307.405 103.625Z" fill="#97B398"/>
<path d="M524.745 53.1351C540.885 53.1351 548.865 62.4052 551.095 75.2152H569.655C569.655 57.8952 555.155 36.0552 524.375 36.0552C497.835 36.0552 477.425 53.5052 477.425 83.1952V85.6052C477.425 115.295 497.835 132.735 524.375 132.735C555.155 132.735 569.655 110.905 569.655 93.5852H551.095C548.865 106.385 540.885 115.665 524.745 115.665C508.745 115.665 496.535 104.535 496.535 85.2351V83.5452C496.575 64.2652 508.785 53.1351 524.745 53.1351Z" fill="#97B398"/>
<path d="M823.735 114.175C820.395 114.175 818.535 112.325 818.535 108.615V70.9452C818.535 48.6752 804.065 36.0552 780.315 36.0552C761.075 36.0552 749.515 44.4751 743.535 55.5151C741.802 58.8145 740.46 62.3047 739.535 65.9152H759.045C761.835 57.6052 768.265 52.0151 780.145 52.0151C793.505 52.0151 799.815 59.0151 799.815 69.6451V75.5852H771.965C751.965 75.5852 737.075 85.2352 737.075 103.785C737.075 122.335 751.925 132.785 771.405 132.785C784.975 132.785 792.235 127.785 796.285 122.785C796.734 122.241 797.297 121.803 797.935 121.502C798.573 121.201 799.27 121.045 799.975 121.045C800.847 121.046 801.701 121.285 802.447 121.736C803.192 122.187 803.8 122.833 804.205 123.605V123.475C806.435 127.645 811.205 130.125 817.205 130.125H831.575V114.125L823.735 114.175ZM799.795 92.2852C799.795 107.685 789.405 116.965 774.195 116.965C762.875 116.965 756.195 111.585 756.195 103.235C756.195 94.8851 762.875 90.4252 773.075 90.4252H799.795V92.2852Z" fill="#97B398"/>
</g>
<defs>
<clipPath id="clip0_26_10877">
<rect width="857.67" height="167.01" fill="white" transform="translate(0.665039 0.245117)"/>
</clipPath>
</defs>
</svg>
