<svg width="859" height="168" viewBox="0 0 859 168" fill="none" xmlns="http://www.w3.org/2000/svg">
<g clip-path="url(#clip0_1_2)">
<path d="M77.725 113.635L55.635 70.2051L77.725 113.635Z" fill="#192831"/>
<path d="M77.725 113.635L55.635 70.2052H31.415L0.665039 130.635H22.205L39.515 96.6351C39.8936 95.9006 40.4671 95.2845 41.1727 94.8543C41.8783 94.4242 42.6887 94.1967 43.515 94.1967C44.3414 94.1967 45.1518 94.4242 45.8574 94.8543C46.563 95.2845 47.1365 95.9006 47.515 96.6351L64.815 130.635H86.375L77.725 113.635Z" fill="#192831"/>
<path d="M113.015 44.1751L90.925 0.745117L113.015 44.1751Z" fill="#192831"/>
<path d="M113.025 44.1751L90.925 0.745071H66.705L35.965 61.1751H57.505L74.805 27.1751C75.1836 26.4406 75.7571 25.8245 76.4627 25.3944C77.1683 24.9642 77.9787 24.7366 78.805 24.7366C79.6314 24.7366 80.4418 24.9642 81.1474 25.3944C81.8529 25.8245 82.4265 26.4406 82.805 27.1751L100.115 61.1751H121.675L113.025 44.1751Z" fill="#192831"/>
<path d="M148.355 113.635L126.255 70.2051L148.355 113.635Z" fill="#192831"/>
<path d="M148.355 113.635L126.265 70.2052H102.035L71.295 130.635H92.835L110.135 96.6351C110.516 95.9035 111.09 95.2904 111.796 94.8625C112.501 94.4346 113.31 94.2085 114.135 94.2085C114.96 94.2085 115.769 94.4346 116.474 94.8625C117.18 95.2904 117.754 95.9035 118.135 96.6351L135.435 130.635H157.005L148.355 113.635Z" fill="#192831"/>
<path d="M621.685 36.5551C594.785 36.5551 576.035 55.2951 576.035 83.8751V86.1052C576.035 114.495 594.595 133.235 622.435 133.235C651.435 133.235 665.225 113.905 665.225 100.575H647.485C643.585 110.805 637.275 116.575 622.805 116.575C607.395 116.575 596.085 106.365 595.525 90.2252H665.855V82.9851C665.855 55.1151 648.035 36.5551 621.685 36.5551ZM595.685 75.5551C597.545 61.8251 607.005 53.4752 621.485 53.4752C635.775 53.4752 645.415 61.8251 646.535 75.5551H595.685Z" fill="#192831"/>
<path d="M693.365 0.745117H674.245V130.645H693.365V0.745117Z" fill="#192831"/>
<path d="M858.335 0.745117H839.215V130.645H858.335V0.745117Z" fill="#192831"/>
<path d="M716.405 0.745071C708.795 0.745071 703.235 5.93507 703.235 13.7451C703.235 21.5551 708.795 26.7451 716.405 26.7451C723.825 26.7451 729.585 21.5451 729.585 13.7451C729.585 5.94507 723.825 0.745071 716.405 0.745071Z" fill="#192831"/>
<path d="M725.865 39.1551H706.755V130.635H725.865V39.1551Z" fill="#192831"/>
<path d="M449.575 85.5451C449.575 105.215 439.375 115.975 423.575 115.975C409.475 115.975 401.125 108.745 401.125 92.7851V39.1551H381.995V94.2651C381.995 117.835 396.995 132.265 417.995 132.265C429.675 132.265 437.095 128.775 441.735 124.265C442.613 123.466 443.758 123.024 444.945 123.025C446.213 123.025 447.429 123.529 448.325 124.425C449.221 125.322 449.725 126.537 449.725 127.805V127.805V145.405C449.725 149.115 448.055 150.975 444.525 150.975H393.525V167.675H450.305C461.625 167.675 468.675 160.675 468.675 149.305V39.0751H449.575V85.5451Z" fill="#192831"/>
<path d="M307.405 104.125C307.182 105.204 306.594 106.173 305.739 106.869C304.885 107.565 303.817 107.945 302.715 107.945C301.643 107.945 300.602 107.584 299.76 106.92C298.918 106.256 298.325 105.328 298.075 104.285V104.285L272.845 0.745071H235.175V130.635H254.655V42.7052C254.655 41.4295 255.162 40.206 256.064 39.3039C256.966 38.4019 258.189 37.8951 259.465 37.8951C260.528 37.8957 261.561 38.2483 262.402 38.8978C263.243 39.5473 263.845 40.457 264.115 41.4851L285.835 130.635H319.575L341.295 41.4752C341.566 40.4506 342.168 39.5442 343.007 38.8968C343.846 38.2494 344.875 37.8973 345.935 37.8951C347.211 37.8951 348.434 38.4019 349.336 39.3039C350.238 40.206 350.745 41.4295 350.745 42.7052V130.635H370.235V0.745071H332.575L307.405 104.125Z" fill="#192831"/>
<path d="M524.745 53.6351C540.885 53.6351 548.865 62.9052 551.095 75.7152H569.655C569.655 58.3952 555.155 36.5551 524.375 36.5551C497.835 36.5551 477.425 54.0051 477.425 83.6951V86.1052C477.425 115.795 497.835 133.235 524.375 133.235C555.155 133.235 569.655 111.405 569.655 94.0852H551.095C548.865 106.885 540.885 116.165 524.745 116.165C508.745 116.165 496.535 105.035 496.535 85.7351V84.0451C496.575 64.7651 508.785 53.6351 524.745 53.6351Z" fill="#192831"/>
<path d="M823.735 114.675C820.395 114.675 818.535 112.825 818.535 109.115V71.4451C818.535 49.1751 804.065 36.5551 780.315 36.5551C761.075 36.5551 749.515 44.9751 743.535 56.0151C741.802 59.3144 740.459 62.8047 739.535 66.4151H759.045C761.835 58.1051 768.265 52.5151 780.145 52.5151C793.505 52.5151 799.815 59.5151 799.815 70.1451V76.0852H771.965C751.965 76.0852 737.075 85.7351 737.075 104.285C737.075 122.835 751.925 133.285 771.405 133.285C784.975 133.285 792.235 128.285 796.285 123.285C796.734 122.741 797.297 122.302 797.935 122.002C798.573 121.701 799.27 121.545 799.975 121.545C800.846 121.546 801.701 121.784 802.447 122.236C803.192 122.687 803.8 123.333 804.205 124.105V123.975C806.435 128.145 811.205 130.625 817.205 130.625H831.575V114.625L823.735 114.675ZM799.795 92.7851C799.795 108.185 789.405 117.465 774.195 117.465C762.875 117.465 756.195 112.085 756.195 103.735C756.195 95.3851 762.875 90.9251 773.075 90.9251H799.795V92.7851Z" fill="#192831"/>
</g>
<defs>
<clipPath id="clip0_1_2">
<rect width="857.67" height="167.01" fill="white" transform="translate(0.665039 0.745117)"/>
</clipPath>
</defs>
</svg>
